<mxfile host="app.diagrams.net" modified="2023-12-03T06:54:40.181Z" agent="Mozilla/5.0 (Macintosh; Intel Mac OS X 10_15_7) AppleWebKit/537.36 (KHTML, like Gecko) Chrome/119.0.0.0 Safari/537.36" etag="KYcYLOFfRGDzCVQiFkN8" version="22.1.5" type="github">
  <diagram name="第 1 页" id="wJo2wd6JcxaJHejlNUAZ">
    <mxGraphModel dx="1030" dy="626" grid="0" gridSize="10" guides="1" tooltips="1" connect="1" arrows="1" fold="1" page="1" pageScale="1" pageWidth="1700" pageHeight="1100" math="0" shadow="0">
      <root>
        <mxCell id="0" />
        <mxCell id="1" parent="0" />
        <mxCell id="NkHdSyLVCIDAWrrlncBg-1" value="安全岛-IDmapping" style="rounded=1;whiteSpace=wrap;html=1;" vertex="1" parent="1">
          <mxGeometry x="349" y="12" width="120" height="47" as="geometry" />
        </mxCell>
        <mxCell id="NkHdSyLVCIDAWrrlncBg-2" value="新&lt;br&gt;建&lt;br&gt;任&lt;br&gt;务" style="rounded=0;whiteSpace=wrap;html=1;" vertex="1" parent="1">
          <mxGeometry x="206" y="147" width="32" height="172" as="geometry" />
        </mxCell>
        <mxCell id="NkHdSyLVCIDAWrrlncBg-3" value="查&lt;br&gt;询&lt;br&gt;任&lt;br&gt;务" style="rounded=0;whiteSpace=wrap;html=1;" vertex="1" parent="1">
          <mxGeometry x="289" y="147" width="32" height="172" as="geometry" />
        </mxCell>
        <mxCell id="NkHdSyLVCIDAWrrlncBg-4" value="删&lt;br&gt;除&lt;br&gt;任&lt;br&gt;务" style="rounded=0;whiteSpace=wrap;html=1;" vertex="1" parent="1">
          <mxGeometry x="379" y="147" width="32" height="172" as="geometry" />
        </mxCell>
        <mxCell id="NkHdSyLVCIDAWrrlncBg-5" value="任&lt;br&gt;务&lt;br&gt;详&lt;br&gt;情" style="rounded=0;whiteSpace=wrap;html=1;" vertex="1" parent="1">
          <mxGeometry x="487" y="147" width="32" height="172" as="geometry" />
        </mxCell>
        <mxCell id="NkHdSyLVCIDAWrrlncBg-6" value="场&lt;br&gt;景&lt;br&gt;应&lt;br&gt;用" style="rounded=0;whiteSpace=wrap;html=1;" vertex="1" parent="1">
          <mxGeometry x="595" y="145" width="32" height="172" as="geometry" />
        </mxCell>
        <mxCell id="NkHdSyLVCIDAWrrlncBg-7" value="基&lt;br&gt;本&lt;br&gt;信&lt;br&gt;息" style="rounded=0;whiteSpace=wrap;html=1;" vertex="1" parent="1">
          <mxGeometry x="467" y="397" width="32" height="172" as="geometry" />
        </mxCell>
        <mxCell id="NkHdSyLVCIDAWrrlncBg-8" value="SMC画&lt;br&gt;像" style="rounded=0;whiteSpace=wrap;html=1;" vertex="1" parent="1">
          <mxGeometry x="577" y="399" width="32" height="172" as="geometry" />
        </mxCell>
        <mxCell id="NkHdSyLVCIDAWrrlncBg-9" value="应&lt;br&gt;用&lt;br&gt;场&lt;br&gt;景&lt;br&gt;详&lt;br&gt;情" style="rounded=0;whiteSpace=wrap;html=1;" vertex="1" parent="1">
          <mxGeometry x="510" y="397" width="32" height="172" as="geometry" />
        </mxCell>
        <mxCell id="NkHdSyLVCIDAWrrlncBg-10" value="模&lt;br&gt;型&lt;br&gt;应&lt;br&gt;用" style="rounded=0;whiteSpace=wrap;html=1;" vertex="1" parent="1">
          <mxGeometry x="619" y="399" width="32" height="172" as="geometry" />
        </mxCell>
        <mxCell id="NkHdSyLVCIDAWrrlncBg-26" value="" style="shape=partialRectangle;whiteSpace=wrap;html=1;bottom=1;right=1;left=1;top=0;fillColor=none;routingCenterX=-0.5;direction=west;" vertex="1" parent="1">
          <mxGeometry x="221" y="97" width="390" height="34" as="geometry" />
        </mxCell>
        <mxCell id="NkHdSyLVCIDAWrrlncBg-27" value="" style="shape=partialRectangle;whiteSpace=wrap;html=1;bottom=1;right=1;left=1;top=0;fillColor=none;routingCenterX=-0.5;direction=west;" vertex="1" parent="1">
          <mxGeometry x="467" y="370" width="72" height="22" as="geometry" />
        </mxCell>
        <mxCell id="NkHdSyLVCIDAWrrlncBg-28" value="" style="shape=partialRectangle;whiteSpace=wrap;html=1;bottom=1;right=1;left=1;top=0;fillColor=none;routingCenterX=-0.5;direction=west;" vertex="1" parent="1">
          <mxGeometry x="578" y="370" width="72" height="22" as="geometry" />
        </mxCell>
        <mxCell id="NkHdSyLVCIDAWrrlncBg-31" value="" style="endArrow=none;html=1;rounded=0;entryX=0.5;entryY=1;entryDx=0;entryDy=0;exitX=0.5;exitY=1;exitDx=0;exitDy=0;" edge="1" parent="1" source="NkHdSyLVCIDAWrrlncBg-27" target="NkHdSyLVCIDAWrrlncBg-5">
          <mxGeometry width="50" height="50" relative="1" as="geometry">
            <mxPoint x="504" y="370" as="sourcePoint" />
            <mxPoint x="554" y="320" as="targetPoint" />
          </mxGeometry>
        </mxCell>
        <mxCell id="NkHdSyLVCIDAWrrlncBg-32" value="" style="endArrow=none;html=1;rounded=0;entryX=0.5;entryY=1;entryDx=0;entryDy=0;" edge="1" parent="1" source="NkHdSyLVCIDAWrrlncBg-28">
          <mxGeometry width="50" height="50" relative="1" as="geometry">
            <mxPoint x="613.5" y="368" as="sourcePoint" />
            <mxPoint x="613.5" y="317" as="targetPoint" />
          </mxGeometry>
        </mxCell>
        <mxCell id="NkHdSyLVCIDAWrrlncBg-33" value="" style="endArrow=none;html=1;rounded=0;" edge="1" parent="1">
          <mxGeometry width="50" height="50" relative="1" as="geometry">
            <mxPoint x="411" y="96" as="sourcePoint" />
            <mxPoint x="411" y="60" as="targetPoint" />
          </mxGeometry>
        </mxCell>
      </root>
    </mxGraphModel>
  </diagram>
</mxfile>
